<svg width="62" height="61" viewBox="0 0 62 61" fill="none" xmlns="http://www.w3.org/2000/svg">
<path d="M30.1542 0.00169246L0.849915 29.3059V58.8151L59.595 0.00169246H30.1542Z" fill="#E6014D"/>
<path d="M4.34729 60.2527L3.99021 55.6574L0.851862 58.8093L4.34729 60.2527Z" fill="#7E012A"/>
<path d="M61.7857 3.81869L56.1484 3.41383L59.5884 0L61.7857 3.81869Z" fill="#7E012A"/>
<path d="M13.8321 26.6611L14.8362 27.6652L16.4555 26.0459L17.3889 26.9793L15.7696 28.5986L16.8586 29.6875L18.69 27.8561L19.6587 28.8249L16.6181 31.8654L11.6543 26.9015L14.6948 23.861L15.6635 24.8297L13.8321 26.6611ZM20.7195 25.8973L22.3034 24.3134L23.2368 25.2468L20.4437 28.0399L15.4798 23.076L16.689 21.8668L20.7195 25.8973ZM20.0588 18.497L25.0227 23.4609L23.8135 24.6701L18.8496 19.7062L20.0588 18.497ZM24.5059 14.0499L25.4747 15.0186L24.1594 16.3338L28.1546 20.329L26.9454 21.5381L22.9503 17.543L21.6351 18.8582L20.6663 17.8895L24.5059 14.0499ZM27.2906 13.2026L28.2947 14.2067L29.914 12.5874L30.8474 13.5208L29.2281 15.1401L30.3171 16.229L32.1485 14.3976L33.1172 15.3664L30.0766 18.4069L25.1128 13.443L28.1533 10.4025L29.1221 11.3712L27.2906 13.2026Z" fill="white"/>
</svg>
