<svg width="20" height="21" viewBox="0 0 20 21" fill="none" xmlns="http://www.w3.org/2000/svg"><path d="M5.48131 13.4014C4.30234 14.1034 1.21114 15.5369 3.09389 17.3306C4.01359 18.2068 5.03791 18.8334 6.32573 18.8334H13.6743C14.9621 18.8334 15.9864 18.2068 16.9061 17.3306C18.7888 15.5369 15.6977 14.1034 14.5187 13.4014C11.754 11.7552 8.24599 11.7552 5.48131 13.4014Z" stroke="#5B8581" stroke-width="1.5" stroke-linecap="round" stroke-linejoin="round"></path><path d="M13.75 5.91675C13.75 7.98781 12.0711 9.66675 10 9.66675C7.92893 9.66675 6.25 7.98781 6.25 5.91675C6.25 3.84568 7.92893 2.16675 10 2.16675C12.0711 2.16675 13.75 3.84568 13.75 5.91675Z" stroke="#5B8581" stroke-width="1.5"></path><defs><linearGradient id="paint0_linear_63_4339" x1="17.1186" y1="15.5001" x2="2.5" y2="15.5001" gradientUnits="userSpaceOnUse"><stop stop-color="#B07B59"></stop><stop offset="1" stop-color="#C2A891"></stop></linearGradient><linearGradient id="paint1_linear_63_4339" x1="13.5593" y1="5.91675" x2="6.25" y2="5.91675" gradientUnits="userSpaceOnUse"><stop stop-color="#B07B59"></stop><stop offset="1" stop-color="#C2A891"></stop></linearGradient></defs></svg>