<svg viewBox="0 0 20 21" fill="none" xmlns="http://www.w3.org/2000/svg" ><path d="M18.3333 8.83329V8.1812C18.3333 6.56485 18.3333 5.75668 17.8451 5.25454C17.357 4.75241 16.5713 4.75241 15 4.75241H13.2678C12.5033 4.75241 12.497 4.75093 11.8095 4.40691L9.03321 3.01758C7.87399 2.43749 7.29439 2.14745 6.67694 2.16761C6.05948 2.18777 5.49893 2.51503 4.37783 3.16955L3.35461 3.76693C2.53112 4.2477 2.11937 4.48809 1.89299 4.88799C1.66663 5.2879 1.66663 5.7749 1.66663 6.7489V13.5964C1.66663 14.8761 1.66663 15.516 1.95184 15.8722C2.14163 16.1091 2.40759 16.2685 2.70163 16.3213C3.14351 16.4006 3.68453 16.0848 4.76652 15.453C5.50126 15.0241 6.20838 14.5786 7.08735 14.6995C7.82387 14.8006 8.50829 15.2654 9.16663 15.5948" stroke="#5B8581" stroke-width="1.5" stroke-linecap="round" stroke-linejoin="round"></path><path d="M6.66663 2.16663V14.6666" stroke="#5B8581" stroke-width="1.5" stroke-linejoin="round"></path><path d="M12.5 4.66663V8.41663" stroke="#5B8581" stroke-width="1.5" stroke-linecap="round" stroke-linejoin="round"></path><path d="M15.257 18.5696C15.0763 18.7388 14.8348 18.8333 14.5835 18.8333C14.3321 18.8333 14.0906 18.7388 13.91 18.5696C12.2553 17.0108 10.038 15.2696 11.1193 12.7415C11.704 11.3747 13.1075 10.5 14.5835 10.5C16.0595 10.5 17.463 11.3747 18.0476 12.7415C19.1276 15.2663 16.9157 17.0162 15.257 18.5696Z" stroke="#5B8581" stroke-width="1.5"></path><path d="M14.5834 14.25H14.5909" stroke="#5B8581" stroke-width="2" stroke-linecap="round" stroke-linejoin="round"></path></svg>