<svg width="20" height="18" viewBox="0 0 20 18" fill="none" xmlns="http://www.w3.org/2000/svg">
<path d="M6.86824 5.6166L1.55157 6.38744L1.45741 6.4066C1.31486 6.44445 1.1849 6.51944 1.08082 6.62394C0.97673 6.72843 0.902242 6.85868 0.864958 7.00137C0.827673 7.14407 0.828929 7.29411 0.868595 7.43616C0.908262 7.57822 0.98492 7.7072 1.09074 7.80994L4.94241 11.5591L4.03407 16.8549L4.02324 16.9466C4.01451 17.094 4.04513 17.2411 4.11195 17.3729C4.17877 17.5046 4.27939 17.6162 4.40352 17.6962C4.52765 17.7762 4.67081 17.8218 4.81836 17.8284C4.96591 17.8349 5.11254 17.8021 5.24324 17.7333L9.99824 15.2333L14.7424 17.7333L14.8257 17.7716C14.9633 17.8258 15.1128 17.8424 15.2589 17.8197C15.405 17.7971 15.5424 17.736 15.6571 17.6427C15.7717 17.5494 15.8595 17.4272 15.9114 17.2888C15.9633 17.1504 15.9775 17.0006 15.9524 16.8549L15.0432 11.5591L18.8966 7.8091L18.9616 7.73827C19.0544 7.62391 19.1153 7.48698 19.138 7.34143C19.1607 7.19588 19.1444 7.04692 19.0908 6.90971C19.0372 6.7725 18.9482 6.65196 18.8328 6.56036C18.7174 6.46876 18.5799 6.40938 18.4341 6.38827L13.1174 5.6166L10.7407 0.799935C10.672 0.660381 10.5655 0.542865 10.4334 0.460689C10.3013 0.378514 10.1488 0.334961 9.99324 0.334961C9.83766 0.334961 9.68519 0.378514 9.55308 0.460689C9.42098 0.542865 9.31451 0.660381 9.24574 0.799935L6.86824 5.6166Z" fill="url(#paint0_linear_63_4346)"/>
<defs>
<linearGradient id="paint0_linear_63_4346" x1="18.6825" y1="9.08227" x2="0.83789" y2="9.08227" gradientUnits="userSpaceOnUse">
<stop stop-color="#2F464B"/>
<stop offset="1" stop-color="#97B2A9"/>
</linearGradient>
</defs>
</svg>
