<svg  viewBox="0 0 20 21" fill="none" xmlns="http://www.w3.org/2000/svg"><g clip-path="url(#clip0_63_4034)"><path d="M6.86922 6.61672L1.55255 7.38756L1.45838 7.40672C1.31583 7.44457 1.18588 7.51957 1.08179 7.62406C0.977707 7.72855 0.903219 7.8588 0.865934 8.0015C0.82865 8.14419 0.829905 8.29423 0.869572 8.43629C0.909239 8.57834 0.985896 8.70732 1.09172 8.81006L4.94338 12.5592L4.03505 17.8551L4.02422 17.9467C4.01549 18.0942 4.0461 18.2413 4.11292 18.373C4.17974 18.5047 4.28037 18.6163 4.4045 18.6963C4.52862 18.7764 4.67179 18.822 4.81934 18.8285C4.96689 18.835 5.11352 18.8022 5.24422 18.7334L9.99922 16.2334L14.7434 18.7334L14.8267 18.7717C14.9643 18.8259 15.1138 18.8425 15.2598 18.8199C15.4059 18.7972 15.5434 18.7361 15.658 18.6428C15.7727 18.5495 15.8605 18.4273 15.9124 18.2889C15.9643 18.1505 15.9785 18.0008 15.9534 17.8551L15.0442 12.5592L18.8975 8.80922L18.9625 8.73839C19.0554 8.62403 19.1163 8.4871 19.139 8.34155C19.1617 8.196 19.1454 8.04704 19.0918 7.90983C19.0382 7.77263 18.9492 7.65208 18.8338 7.56049C18.7184 7.46889 18.5808 7.4095 18.435 7.38839L13.1184 6.61672L10.7417 1.80006C10.6729 1.6605 10.5665 1.54299 10.4344 1.46081C10.3023 1.37864 10.1498 1.33508 9.99422 1.33508C9.83864 1.33508 9.68616 1.37864 9.55406 1.46081C9.42195 1.54299 9.31549 1.6605 9.24672 1.80006L6.86922 6.61672Z" fill="#5B8581"></path></g><defs><clipPath id="clip0_63_4034"><rect width="20" height="20" fill="white" transform="translate(0 0.5)"></rect></clipPath></defs></svg>